<svg width="500" height="600" viewBox="0 0 500 600" fill="none" xmlns="http://www.w3.org/2000/svg">
<rect width="500" height="600" rx="10" fill="#BF0202"/>
<path d="M98.5 60.5C98.5 81.4808 81.2691 98.5 60 98.5C38.7309 98.5 21.5 81.4808 21.5 60.5C21.5 39.5192 38.7309 22.5 60 22.5C81.2691 22.5 98.5 39.5192 98.5 60.5Z" fill="#D9D9D9" stroke="black"/>
<path d="M90.5 57C90.5 73.2846 77.0764 86.5 60.5 86.5C43.9236 86.5 30.5 73.2846 30.5 57C30.5 40.7154 43.9236 27.5 60.5 27.5C77.0764 27.5 90.5 40.7154 90.5 57Z" fill="#35C5F2" stroke="black"/>
<path d="M132 33C132 38.3728 126.791 43 120 43C113.209 43 108 38.3728 108 33C108 27.6272 113.209 23 120 23C126.791 23 132 27.6272 132 33Z" fill="#FF0000" stroke="black" stroke-width="2"/>
<path d="M166 33C166 38.3728 160.791 43 154 43C147.209 43 142 38.3728 142 33C142 27.6272 147.209 23 154 23C160.791 23 166 27.6272 166 33Z" fill="#FAFF00" stroke="black" stroke-width="2"/>
<path d="M200 33C200 38.3728 194.791 43 188 43C181.209 43 176 38.3728 176 33C176 27.6272 181.209 23 188 23C194.791 23 200 27.6272 200 33Z" fill="#00FF00" stroke="black" stroke-width="2"/>
<path d="M15 153C15 145.901 15.0021 140.677 15.5403 136.674C16.0745 132.7 17.1206 130.08 19.1005 128.101C21.0804 126.121 23.7003 125.075 27.6742 124.54C31.6768 124.002 36.9007 124 44 124H425C432.099 124 437.323 124.002 441.326 124.54C445.3 125.075 447.92 126.121 449.9 128.101C451.879 130.08 452.925 132.7 453.46 136.674C453.998 140.677 454 145.901 454 153V536C454 543.099 453.998 548.323 453.46 552.326C452.925 556.3 451.879 558.92 449.9 560.9C447.92 562.879 445.3 563.925 441.326 564.46C437.323 564.998 432.099 565 425 565H44C36.9007 565 31.6768 564.998 27.6742 564.46C23.7003 563.925 21.0804 562.879 19.1005 560.9C17.1206 558.92 16.0745 556.3 15.5403 552.326C15.0021 548.323 15 543.099 15 536V153Z" fill="#5B5B5B" stroke="black" stroke-width="2"/>
<path d="M14 566V522L60 566H14Z" fill="#FF0000"/>
<line x1="14.3456" y1="521.639" x2="60.3456" y2="565.639" stroke="black"/>
<path d="M22 146C22 138.901 22.0021 133.677 22.5403 129.674C23.0745 125.7 24.1206 123.08 26.1005 121.101C28.0804 119.121 30.7003 118.075 34.6742 117.54C38.6768 117.002 43.9007 117 51 117H432C439.099 117 444.323 117.002 448.326 117.54C452.3 118.075 454.92 119.121 456.9 121.101C458.879 123.08 459.925 125.7 460.46 129.674C460.998 133.677 461 138.901 461 146V529C461 536.099 460.998 541.323 460.46 545.326C459.925 549.3 458.879 551.92 456.9 553.9C454.92 555.879 452.3 556.925 448.326 557.46C444.323 557.998 439.099 558 432 558H51C43.9007 558 38.6768 557.998 34.6742 557.46C30.7003 556.925 28.0804 555.879 26.1005 553.9C24.1206 551.92 23.0745 549.3 22.5403 545.326C22.0021 541.323 22 536.099 22 529V146Z" fill="#D9D9D9" stroke="black" stroke-width="2"/>
<line x1="21.3456" y1="514.639" x2="67.3456" y2="558.639" stroke="black"/>
<path d="M61.5 566.5L14 523V566.5H61.5Z" fill="#BF0202" stroke="#BF0202"/>
<path d="M67 558.488L21 515V528.302L54.2222 559L67 558.488Z" fill="#5B5B5B"/>
<line x1="15.3456" y1="522.639" x2="61.3456" y2="566.639" stroke="black"/>
<rect x="54.5" y="132.5" width="371" height="302" fill="white" stroke="black"/>
<path d="M87.5 124C87.5 125.835 85.5952 127.5 83 127.5C80.4048 127.5 78.5 125.835 78.5 124C78.5 122.165 80.4048 120.5 83 120.5C85.5952 120.5 87.5 122.165 87.5 124Z" fill="#FF0000" stroke="black"/>
<path d="M101.5 124C101.5 125.835 99.5952 127.5 97 127.5C94.4048 127.5 92.5 125.835 92.5 124C92.5 122.165 94.4048 120.5 97 120.5C99.5952 120.5 101.5 122.165 101.5 124Z" fill="#FF0000" stroke="black"/>
<rect x="365" y="499.655" width="63" height="11.3448" rx="5.67241" fill="#5F5E5E"/>
<rect x="365" y="464" width="63" height="11.3448" rx="5.67241" fill="#5F5E5E"/>
<rect x="365" y="481.828" width="63" height="11.3448" rx="5.67241" fill="#5F5E5E"/>
</svg>
