<svg width="300" height="400" viewBox="0 0 300 400" fill="none" xmlns="http://www.w3.org/2000/svg">
<rect width="300" height="400" fill="#1E1E1E"/>
<rect width="300" height="400" rx="10" fill="#BF0202"/>
<path d="M82.5 45.5C82.5 51.799 79.1332 57.5379 73.6183 61.7186C68.103 65.8995 60.4614 68.5 52 68.5C43.5386 68.5 35.897 65.8995 30.3817 61.7186C24.8668 57.5379 21.5 51.799 21.5 45.5C21.5 39.201 24.8668 33.4621 30.3817 29.2814C35.897 25.1005 43.5386 22.5 52 22.5C60.4614 22.5 68.103 25.1005 73.6183 29.2814C79.1332 33.4621 82.5 39.201 82.5 45.5Z" fill="#D9D9D9" stroke="black"/>
<path d="M76.141 43.3636C76.141 48.2291 73.5312 52.6709 69.2389 55.913C64.9463 59.1553 58.9936 61.1753 52.3974 61.1753C45.8013 61.1753 39.8486 59.1553 35.556 55.913C31.2636 52.6709 28.6538 48.2291 28.6538 43.3636C28.6538 38.4981 31.2636 34.0564 35.556 30.8143C39.8486 27.572 45.8013 25.5519 52.3974 25.5519C58.9936 25.5519 64.9463 27.572 69.2389 30.8143C73.5312 34.0564 76.141 38.4981 76.141 43.3636Z" fill="#35C5F2" stroke="black"/>
<path d="M107.745 30C107.745 33.64 103.806 37 98.3723 37C92.9391 37 89 33.64 89 30C89 26.36 92.9391 23 98.3723 23C103.806 23 107.745 26.36 107.745 30Z" fill="#FF0000" stroke="black" stroke-width="2"/>
<path d="M134.872 30C134.872 33.64 130.933 37 125.5 37C120.067 37 116.128 33.64 116.128 30C116.128 26.36 120.067 23 125.5 23C130.933 23 134.872 26.36 134.872 30Z" fill="#FAFF00" stroke="black" stroke-width="2"/>
<path d="M162 30C162 33.64 158.061 37 152.628 37C147.194 37 143.255 33.64 143.255 30C143.255 26.36 147.194 23 152.628 23C158.061 23 162 26.36 162 30Z" fill="#00FF00" stroke="black" stroke-width="2"/>
<path d="M11 118C11 110.901 11.0021 105.677 11.5403 101.674C12.0745 97.7003 13.1206 95.0804 15.1005 93.1005C17.0804 91.1206 19.7003 90.0745 23.6742 89.5403C27.6768 89.0021 32.9007 89 40 89H261C268.099 89 273.323 89.0021 277.326 89.5403C281.3 90.0745 283.92 91.1206 285.9 93.1005C287.879 95.0804 288.925 97.7004 289.46 101.674C289.998 105.677 290 110.901 290 118V355C290 362.099 289.998 367.323 289.46 371.326C288.925 375.3 287.879 377.92 285.9 379.9C283.92 381.879 281.3 382.925 277.326 383.46C273.323 383.998 268.099 384 261 384H40C32.9007 384 27.6768 383.998 23.6742 383.46C19.7004 382.925 17.0804 381.879 15.1005 379.9C13.1206 377.92 12.0745 375.3 11.5403 371.326C11.0021 367.323 11 362.099 11 355V118Z" fill="#5B5B5B" stroke="black" stroke-width="2"/>
<path d="M10 385V355.501L39.3107 385H10Z" fill="#FF0000"/>
<line y1="-0.5" x2="41.5848" y2="-0.5" transform="matrix(0.70484 0.709366 -0.672675 0.739938 10 355.501)" stroke="black"/>
<path d="M15.3906 108C15.3906 100.901 15.3927 95.6767 15.9309 91.6742C16.4651 87.7003 17.5112 85.0804 19.4911 83.1005C21.4711 81.1206 24.091 80.0745 28.0648 79.5403C32.0674 79.0021 37.2913 79 44.3906 79H261C268.099 79 273.323 79.0021 277.326 79.5403C281.3 80.0745 283.92 81.1206 285.9 83.1005C287.879 85.0804 288.925 87.7004 289.46 91.6742C289.998 95.6768 290 100.901 290 108V349.554C290 356.654 289.998 361.878 289.46 365.88C288.925 369.854 287.879 372.474 285.9 374.454C283.92 376.434 281.3 377.48 277.326 378.014C273.323 378.552 268.099 378.554 261 378.554H44.3906C37.2913 378.554 32.0674 378.552 28.0648 378.014C24.091 377.48 21.4711 376.434 19.4911 374.454C17.5112 372.474 16.4651 369.854 15.9309 365.88C15.3927 361.878 15.3906 356.654 15.3906 349.554V108Z" fill="#D9D9D9" stroke="black" stroke-width="2"/>
<line y1="-0.5" x2="41.5879" y2="-0.5" transform="matrix(0.693776 0.720191 -0.66121 0.750201 14.3906 349.603)" stroke="black"/>
<path d="M39.7935 384.66L10 355.049V384.66H39.7935Z" fill="#BF0202" stroke="#BF0202"/>
<path d="M43.2433 379.206L14.3906 349.603V358.658L35.2287 379.554L43.2433 379.206Z" fill="#5B5B5B"/>
<line y1="-0.5" x2="41.5879" y2="-0.5" transform="matrix(0.693776 0.720191 -0.66121 0.750201 10.6272 355.049)" stroke="black"/>
<rect x="27.5" y="99.5" width="252" height="201" fill="white" stroke="black"/>
<path d="M48.5 92C48.5 93.8346 46.5952 95.5 44 95.5C41.4048 95.5 39.5 93.8346 39.5 92C39.5 90.1654 41.4048 88.5 44 88.5C46.5952 88.5 48.5 90.1654 48.5 92Z" fill="#FF0000" stroke="black"/>
<path d="M62.5 92C62.5 93.8346 60.5952 95.5 58 95.5C55.4048 95.5 53.5 93.8346 53.5 92C53.5 90.1654 55.4048 88.5 58 88.5C60.5952 88.5 62.5 90.1654 62.5 92Z" fill="#FF0000" stroke="black"/>
<rect x="238" y="338.552" width="42" height="8.44828" rx="4.22414" fill="#5F5E5E"/>
<rect x="238" y="312" width="42" height="8.44828" rx="4.22414" fill="#5F5E5E"/>
<rect x="238" y="325.276" width="42" height="8.44828" rx="4.22414" fill="#5F5E5E"/>
<rect x="28" y="309" width="183" height="41" rx="10" fill="#23F900"/>
</svg>
